<svg width="23" height="24" viewBox="0 0 16 17" fill="none" xmlns="http://www.w3.org/2000/svg">
<path d="M5.6875 16.125C7.175 16.125 8.375 14.925 8.375 13.4375V10.75H5.6875C4.2 10.75 3 11.95 3 13.4375C3 14.925 4.2 16.125 5.6875 16.125Z" fill="#0ACF83"/>
<path d="M3 8.0625C3 6.575 4.2 5.375 5.6875 5.375H8.375V10.75H5.6875C4.2 10.75 3 9.55 3 8.0625Z" fill="#A259FF"/>
<path d="M3 2.6875C3 1.2 4.2 0 5.6875 0H8.375V5.375H5.6875C4.2 5.375 3 4.175 3 2.6875Z" fill="#F24E1E"/>
<path d="M8.375 0H11.0625C12.55 0 13.75 1.2 13.75 2.6875C13.75 4.175 12.55 5.375 11.0625 5.375H8.375V0Z" fill="#FF7262"/>
<path d="M13.75 8.0625C13.75 9.55 12.55 10.75 11.0625 10.75C9.575 10.75 8.375 9.55 8.375 8.0625C8.375 6.575 9.575 5.375 11.0625 5.375C12.55 5.375 13.75 6.575 13.75 8.0625Z" fill="#1ABCFE"/>
</svg>
