<svg
  xmlns="http://www.w3.org/2000/svg"
  width="24"
  height="24"
  fill="none"
  viewBox="0 0 16 16"
>
  <title>Firebase icon</title>
  <path
    fill="#FFA000"
    d="M2.184 12.91 4.154.307a.364.364 0 0 1 .68-.116l2.036 3.8.812-1.546a.364.364 0 0 1 .644 0l5.496 10.465z"
  />
  <path fill="#F57C00" d="M8.988 8 6.869 3.99l-4.685 8.92z" />
  <path
    fill="#FFCA28"
    d="m13.822 12.91-1.508-9.334a.364.364 0 0 0-.616-.197l-9.514 9.53 5.265 2.953a1.09 1.09 0 0 0 1.063 0z"
  />
  <path
    fill="#fff"
    fill-opacity=".2"
    d="M12.314 3.575a.364.364 0 0 0-.616-.196L9.81 5.272 8.325 2.445a.364.364 0 0 0-.644 0L6.87 3.991 4.833.192a.364.364 0 0 0-.68.117l-1.969 12.6h-.006l.006.008.052.025 9.46-9.47a.364.364 0 0 1 .616.196l1.496 9.25.014-.009zM2.202 12.892 4.154.398a.364.364 0 0 1 .68-.117l2.036 3.8.812-1.547a.364.364 0 0 1 .644 0l1.455 2.767z"
  />
  <path
    fill="#A52714"
    d="M8.512 15.773a1.09 1.09 0 0 1-1.063 0l-5.252-2.944-.013.08 5.264 2.952a1.09 1.09 0 0 0 1.064 0l5.31-2.951-.013-.084z"
    opacity=".2"
  />
</svg>

