<svg width="43" height="24" viewBox="0 0 43 16" fill="none" xmlns="http://www.w3.org/2000/svg">
<path d="M24.3777 1.10791L24.4714 1.17041C25.5724 1.89749 26.3618 2.89466 26.8812 4.09957C27.0058 4.28649 26.9227 4.39041 26.6734 4.45266L26.2515 4.56066C25.2976 4.80641 24.5407 5.01307 23.5992 5.25882L23.0623 5.39866C22.869 5.44649 22.8157 5.42641 22.61 5.19224L22.581 5.15899C22.2877 4.82666 22.0681 4.60466 21.6796 4.40649L21.6047 4.36957C20.2959 3.72566 19.0287 3.91257 17.8447 4.68124C16.432 5.59524 15.7049 6.94557 15.7257 8.62824C15.7465 10.2901 16.889 11.6612 18.5302 11.8897C19.9427 12.0767 21.1268 11.5781 22.0617 10.5187C22.2487 10.2901 22.4148 10.0408 22.6225 9.74999H18.6133C18.1771 9.74999 18.0732 9.47999 18.2187 9.12682L18.2907 8.95724C18.5577 8.33607 18.9717 7.44324 19.2407 6.93274L19.2993 6.82282C19.3712 6.69832 19.517 6.53007 19.7974 6.53007H26.4827C26.783 5.57882 27.2702 4.67999 27.9199 3.82949C29.4364 1.83524 31.2645 0.79649 33.7366 0.360323C35.8555 -0.0136769 37.8498 0.194073 39.6571 1.41974C41.2982 2.54149 42.3162 4.05807 42.5863 6.05224C42.9393 8.85674 42.1292 11.1418 40.1973 13.0946C38.8262 14.4864 37.1435 15.3589 35.2115 15.7536C34.6507 15.8575 34.0897 15.8782 33.5497 15.9406C31.6592 15.899 29.935 15.3589 28.4808 14.1125C27.4581 13.2283 26.7536 12.1418 26.4035 10.8768C26.1578 11.3725 25.8657 11.8438 25.531 12.2843C24.0352 14.2579 22.0826 15.4835 19.6105 15.816C17.5747 16.086 15.6842 15.6912 14.0223 14.4448C12.4851 13.2815 11.6126 11.7442 11.384 9.83316C11.114 7.56874 11.7787 5.53291 13.1498 3.74641C14.6248 1.81441 16.5775 0.588823 18.9665 0.152573C20.8831 -0.194094 22.7196 0.0196564 24.3778 1.10791M34.26 4.08474L34.1935 4.09957C32.2616 4.53582 31.0152 5.76141 30.5582 7.71416C30.1842 9.33449 30.9736 10.9757 32.4693 11.6404C33.6118 12.139 34.7544 12.0767 35.8554 11.5157C37.4966 10.6641 38.3898 9.33449 38.4937 7.54799C38.4729 7.27799 38.4729 7.07016 38.4313 6.86241C38.0617 4.82899 36.2093 3.66874 34.26 4.08474ZM9.70133 7.88032C9.78441 7.88032 9.826 7.94266 9.826 8.02574L9.78441 8.52432C9.78441 8.60741 9.70133 8.66974 9.639 8.66974L5.11033 8.64899C5.02725 8.64899 5.0065 8.58666 5.048 8.52432L5.33883 8.00499C5.38041 7.94266 5.4635 7.88032 5.54658 7.88032H9.70133ZM10.1583 5.96916C10.2414 5.96916 10.283 6.03149 10.2622 6.09382L10.096 6.59241C10.0752 6.67549 9.99216 6.71699 9.90908 6.71699L0.0830802 6.73782C-3.08454e-06 6.73782 -0.0207531 6.69624 0.0207469 6.63391L0.456997 6.07307C0.49858 6.01074 0.602414 5.96916 0.685497 5.96916H10.1583ZM11.2386 4.05799C11.3217 4.05799 11.3424 4.12032 11.3009 4.18266L10.9477 4.72274C10.9062 4.78507 10.8023 4.84741 10.74 4.84741L3.22 4.82657C3.13683 4.82657 3.11608 4.78507 3.15758 4.72274L3.59383 4.16191C3.63541 4.09957 3.73925 4.05799 3.82233 4.05799H11.2386Z" fill="#00ACD7"/>
</svg>
