<svg width="24" height="24" viewBox="0 0 16 16" fill="none" xmlns="http://www.w3.org/2000/svg">
<path d="M0.176025 0.176025H15.824V15.8242H0.176025V0.176025Z" fill="#F0DB4F"/>
<path d="M14.5434 12.092C14.4288 11.3781 13.9633 10.7785 12.5844 10.2194C12.1054 9.99923 11.5714 9.84161 11.4123 9.47861C11.3558 9.26736 11.3483 9.14836 11.3841 9.02048C11.4867 8.60548 11.9821 8.47611 12.3747 8.59511C12.6276 8.67986 12.8669 8.87473 13.0113 9.18561C13.6866 8.74836 13.6852 8.75123 14.1567 8.45073C13.9841 8.18311 13.8919 8.05961 13.7789 7.94511C13.3728 7.49148 12.8194 7.25786 11.9344 7.27573L11.4734 7.33536C11.0317 7.44698 10.6107 7.67886 10.3638 7.98973C9.62307 8.83023 9.83432 10.3012 10.7357 10.9066C11.6237 11.5731 12.9282 11.7247 13.0948 12.348C13.2569 13.111 12.5341 13.358 11.8156 13.2702C11.2861 13.1601 10.9916 12.891 10.6732 12.4016C10.0872 12.7407 10.0872 12.7407 9.48469 13.0872C9.62757 13.3996 9.77769 13.541 10.0172 13.8116C11.1507 14.9614 13.9872 14.9049 14.4959 13.1646C14.5166 13.1049 14.6536 12.7064 14.5434 12.092ZM8.68282 7.36786H7.21919L7.21319 11.1519C7.21319 11.9566 7.25482 12.6944 7.12394 12.9205C6.90982 13.3652 6.35494 13.3101 6.10207 13.2239C5.84469 13.0974 5.71382 12.9175 5.56219 12.6632C5.52057 12.5902 5.48932 12.5337 5.47882 12.5294L4.28882 13.2581C4.48669 13.6642 4.77819 14.0167 5.15157 14.2457C5.70932 14.5805 6.45894 14.6831 7.24294 14.5031C7.75319 14.3545 8.19344 14.0466 8.42394 13.578C8.75719 12.9636 8.68569 12.22 8.68269 11.3975C8.69019 10.0556 8.68282 8.71398 8.68282 7.36786Z" fill="#323330"/>
</svg>
