<svg
  xmlns="http://www.w3.org/2000/svg"
  width="24"
  height="24"
  fill="none"
  viewBox="0 0 24 24"
>
  <g clip-path="url(#raylib-a)">
    <path fill="#F5F5F5" d="M1 1h22v22H1z" />
    <path
      fill="#000"
      d="M0 0v24h24V0zm1.5 1.5h21v21h-21zm14.813 15.469v3.281h.937v-.469h-.469V16.97zm1.406 0v.468h.468v-.468zm.937 0v3.281H21v-2.344h-1.875v-.937zm-10.781.937v2.344h.469v-1.875h1.875v-.469zm2.813 0v.469h1.874v.469h-1.874v1.406h2.343v-2.344zm2.812 0v2.344h1.875v.469H13.5v.468h2.344v-3.28h-.469v1.874h-1.406v-1.875zm4.219 0v2.344h.468v-2.344zm1.406.469h1.406v1.406h-1.406zm-7.969.938h1.406v.468h-1.406z"
    />
  </g>
  <defs>
    <clipPath id="raylib-a"><path fill="#fff" d="M0 0h24v24H0z" /></clipPath>
  </defs>
</svg>
