<svg width="24" height="24" viewBox="0 0 16 16" fill="none" xmlns="http://www.w3.org/2000/svg">
<path d="M7.99995 9.42501C8.78696 9.42501 9.42495 8.78702 9.42495 8.00001C9.42495 7.21301 8.78696 6.57501 7.99995 6.57501C7.21295 6.57501 6.57495 7.21301 6.57495 8.00001C6.57495 8.78702 7.21295 9.42501 7.99995 9.42501Z" fill="#61DAFB"/>
<path d="M13.4125 5.65001C13.1375 5.55001 12.85 5.45001 12.55 5.36251C12.625 5.06251 12.6875 4.76251 12.7375 4.47501C13 2.82501 12.7125 1.66251 11.9125 1.21251C11.675 1.07501 11.4125 1.01251 11.1125 1.01251C10.2375 1.01251 9.12505 1.66251 8.00005 2.75001C6.87505 1.66251 5.76255 1.01251 4.88755 1.01251C4.58755 1.01251 4.32505 1.07501 4.08755 1.21251C3.28755 1.67501 3.00005 2.83751 3.26255 4.47501C3.31255 4.76251 3.37505 5.06251 3.45005 5.36251C3.15005 5.45001 2.86255 5.53751 2.58755 5.65001C1.02505 6.25001 0.175049 7.07501 0.175049 8.00001C0.175049 8.92501 1.03755 9.75001 2.58755 10.35C2.86255 10.45 3.15005 10.55 3.45005 10.6375C3.37505 10.9375 3.31255 11.2375 3.26255 11.525C3.00005 13.175 3.28755 14.3375 4.08755 14.7875C4.32505 14.925 4.58755 14.9875 4.88755 14.9875C5.77505 14.9875 6.88755 14.3375 8.00005 13.25C9.12505 14.3375 10.2375 14.9875 11.1125 14.9875C11.4125 14.9875 11.675 14.925 11.9125 14.7875C12.7125 14.325 13 13.1625 12.7375 11.525C12.6875 11.2375 12.625 10.9375 12.55 10.6375C12.85 10.55 13.1375 10.4625 13.4125 10.35C14.975 9.75001 15.825 8.92501 15.825 8.00001C15.825 7.07501 14.975 6.25001 13.4125 5.65001ZM11.5625 1.83751C12.075 2.13751 12.25 3.06251 12.0375 4.37501C12 4.63751 11.9375 4.91251 11.8625 5.20001C11.2125 5.05001 10.525 4.95001 9.80005 4.88751C9.37505 4.28751 8.93755 3.75001 8.50005 3.26251C9.42505 2.35001 10.3625 1.72501 11.125 1.72501C11.2875 1.72501 11.4375 1.76251 11.5625 1.83751ZM10.1625 9.25001C9.93755 9.65001 9.67505 10.05 9.40005 10.45C8.93755 10.4875 8.47505 10.5 8.00005 10.5C7.51255 10.5 7.05005 10.4875 6.60005 10.45C6.32505 10.05 6.07505 9.65001 5.85005 9.25001C5.61255 8.83751 5.38755 8.41251 5.18755 8.00001C5.38755 7.58751 5.61255 7.16251 5.85005 6.75001C6.07505 6.35001 6.33755 5.95001 6.61255 5.55001C7.07505 5.51251 7.53755 5.50001 8.01255 5.50001C8.50005 5.50001 8.96255 5.51251 9.41255 5.55001C9.68755 5.95001 9.93755 6.35001 10.1625 6.75001C10.4 7.16251 10.625 7.58751 10.825 8.00001C10.6125 8.41251 10.4 8.82501 10.1625 9.25001ZM11.2 8.83751C11.3875 9.27501 11.5375 9.70001 11.675 10.125C11.25 10.225 10.8 10.3 10.325 10.3625C10.475 10.125 10.6375 9.87501 10.775 9.61251C10.925 9.35001 11.0625 9.08751 11.2 8.83751ZM8.00005 12.225C7.70005 11.9 7.41255 11.55 7.13755 11.1875C7.42505 11.2 7.71255 11.2125 8.00005 11.2125C8.28755 11.2125 8.57505 11.2 8.86255 11.1875C8.58755 11.55 8.30005 11.9 8.00005 12.225ZM5.67505 10.35C5.20005 10.2875 4.75005 10.2125 4.32505 10.1125C4.46255 9.70001 4.61255 9.26251 4.80005 8.82501C4.93755 9.07501 5.07505 9.33751 5.22505 9.58751C5.37505 9.86251 5.52505 10.1 5.67505 10.35ZM4.80005 7.16251C4.61255 6.72501 4.46255 6.30001 4.32505 5.87501C4.75005 5.77501 5.20005 5.70001 5.67505 5.63751C5.52505 5.87501 5.36255 6.12501 5.22505 6.38751C5.07505 6.65001 4.93755 6.91251 4.80005 7.16251ZM8.00005 3.77501C8.30005 4.10001 8.58755 4.45001 8.86255 4.81251C8.57505 4.80001 8.28755 4.78751 8.00005 4.78751C7.71255 4.78751 7.42505 4.80001 7.13755 4.81251C7.41255 4.45001 7.70005 4.10001 8.00005 3.77501ZM10.775 6.40001L10.325 5.65001C10.8 5.71251 11.25 5.78751 11.675 5.88751C11.5375 6.30001 11.3875 6.73751 11.2 7.17501C11.0625 6.91251 10.925 6.65001 10.775 6.40001ZM3.96255 4.37501C3.75005 3.06251 3.92505 2.13751 4.43755 1.83751C4.56255 1.76251 4.71255 1.72501 4.87505 1.72501C5.62505 1.72501 6.56255 2.33751 7.50005 3.26251C7.06255 3.73751 6.62505 4.28751 6.20005 4.88751C5.47505 4.95001 4.78755 5.06251 4.13755 5.20001C4.06255 4.91251 4.01255 4.63751 3.96255 4.37501ZM0.875049 8.00001C0.875049 7.41251 1.58755 6.78751 2.83755 6.32501C3.08755 6.22501 3.36255 6.13751 3.63755 6.06251C3.83755 6.68751 4.08755 7.35001 4.38755 8.01251C4.08755 8.67501 3.82505 9.32501 3.63755 9.95001C1.91255 9.45001 0.875049 8.70001 0.875049 8.00001ZM4.43755 14.1625C3.92505 13.8625 3.75005 12.9375 3.96255 11.625C4.00005 11.3625 4.06255 11.0875 4.13755 10.8C4.78755 10.95 5.47505 11.05 6.20005 11.1125C6.62505 11.7125 7.06255 12.25 7.50005 12.7375C6.57505 13.65 5.63755 14.275 4.87505 14.275C4.71255 14.275 4.56255 14.2375 4.43755 14.1625ZM12.0375 11.625C12.25 12.9375 12.075 13.8625 11.5625 14.1625C11.4375 14.2375 11.2875 14.275 11.125 14.275C10.375 14.275 9.43755 13.6625 8.50005 12.7375C8.93755 12.2625 9.37505 11.7125 9.80005 11.1125C10.525 11.05 11.2125 10.9375 11.8625 10.8C11.9375 11.0875 11.9875 11.3625 12.0375 11.625ZM13.1625 9.67501C12.9125 9.77501 12.6375 9.86251 12.3625 9.93751C12.1625 9.31251 11.9125 8.65001 11.6125 7.98751C11.9125 7.32501 12.175 6.67501 12.3625 6.05001C14.0875 6.55001 15.125 7.30001 15.125 8.00001C15.125 8.58751 14.4 9.21251 13.1625 9.67501Z" fill="#61DAFB"/>
</svg>
