<svg width="24" height="24" xmlns="http://www.w3.org/2000/svg" fill="none" viewBox="0 0 2500 2345"><g clip-path="url(#a)"><path fill="#FF5A5A" d="M298 1807a4381 4381 0 0 0-180 84l-36 41c-14 37-11 96-17 135l17 36 21-8s9-33 64-89l51-43s181-108 207-120z"/><path fill="#9D3737" d="M424 1839c-77 64-179 98-250 168l-18 26c124-76 251 48 364 81 27 8 2-7 0-25q-3-12 15-39v-28l-78-20 14-70 39-29c8-13 46-33 55-46l-83-19z"/><path fill="url(#b)" d="M1989 1829v-91l-4-71-17-68-16-45-25-41-20-36-18 45-34 56-26 32-33 28-63 34h-59l-57-27-51-28-36-47-11-35-20-119-9 24-31 58-36 52-50 45-41 22-54 15-41-2-111-50-55-67-18-36-45 90-51 65-80 84-79 50-69 52q5 45 28 64c41 32 66 87 104 114 47 35 91 52 134 79 41 25 50 72 86 92 132 74 255 83 287 78 38 7 89-1 127-1 26-6 89-12 122-26 51-21 134-51 184-83 59-38 97-96 111-113 15-17 29-50 40-68 11-24 17-47 26-72z"/><path fill="#F28773" d="M902 1727c70 105 330 43 330-88 0 0-74-16-106-47l-71-86c-39 77-153 164-164 202zm831-47c-5 106 163 156 244 106 4-99-8-205-70-285-19 22-21 70-72 116a350 350 0 0 1-102 63"/><path fill="#564341" d="M1397 1632c16 55 100 69 160 79-51 17-108 9-155-16-26-11-48-54-5-63"/><path fill="url(#c)" d="M725 1848c-12-19-179 13-255 105-37 39 15 59 52 54 112-29 96-95 260-77 2 0-29-35-57-82"/><path fill="url(#d)" d="M800 1948c-77-29-196 2-256 82-21 28-54 111-17 103 93-21 160-20 172-31 43-41 74-69 186-73-14-18-57-70-85-81"/><path fill="url(#e)" d="M946 2047a221 221 0 0 0-230 45c-140 127-121 205-121 205l14 25c39 15 205-32 251-45 87-25 181-34 268-62 0 0-154-149-182-168"/><path fill="url(#f)" d="M1647 2224c112 9 220 45 324 84l26 8 21-4c29-46-17-94-46-128-28-28-74-41-111-48-80-8-146 55-214 88"/><path fill="url(#g)" d="M1808 2143c67-20 141 3 190 58 0 0 38 23 49 16 10-6-2-53-8-63-34-66-61-106-129-125-33 38-65 79-103 114Z"/><path fill="url(#h)" d="M1925 2025c93 30 68 63 153 83 5 1 6-23 6-28 0-27-72-88-111-113-16-11-56 56-48 58"/><path fill="url(#i)" d="M1565 949c5 31-5 121-5 121 264-69 624-461 91-385 56-82 171-126 214-220l-2-11a865 865 0 0 0-626 324l-12 35 16 40c109 33 227 24 340 33 0 0-19 53-16 63"/><path fill="url(#j)" d="M1511 1376c-47 156 126 190 244 133 264-210 193-699-202-408-22 36-16 132-17 136z"/><path fill="url(#k)" d="M1068 1408c10 73 150 88 223 55 172-57 223-391 155-490-6-9-92-21-126-25-97-9-213 81-262 209-14 34 5 77 8 112 5 48-3 103 2 138Z"/><path fill="#fff" d="M1064 1439s260 180 389-162c32-88 18-218 19-277 113 55 28 368 20 405-29 132-158 236-267 207-163-43-161-173-161-173m447 61 23 9c71 53 172 34 241-12 101-82 110-192 149-304l7 7c15 117-13 236-54 345-92 183-334 168-366-45"/><path fill="#fff" d="M1563 1239c-17 41-23 92-11 136 29 67 109 72 155 19 133-142-26-383-144-156Zm-230-2c25-292-280-133-203 78 66 106 180 10 203-78"/><path fill="url(#l)" d="M1966 2005c3 19 16 37 16 37l-28-20-19-9 24-41 10 5s-5 12-3 28"/><path fill="url(#m)" d="M1907 2104c8 19 34 41 34 41l-65-20-32-3 56-63s-1 26 7 45"/><path fill="url(#n)" d="M691 2305s181-54 254-127c49-50 9-112 16-109 50 22 65 55 94 91 13 16 72 54 72 54s-97 14-137 26c-72 22-299 65-299 65"/><path fill="url(#o)" d="M1810 2175c7 41 17 52 94 91 3 1-45-15-119-34-25-6-100-18-100-18s54-21 68-30c17-12 62-31 62-31s-6 18-5 22"/><path fill="url(#p)" d="M690 2092c-9 2-41 6-73 15l-52 15c-7 2-27 4-34-1-2-2-6-9-3-10 87-19 140-42 178-66 67-40 79-71 84-95 3-10 27 13 35 22l44 45s-63 12-82 18c-43 12-85 53-97 56Z"/><path fill="url(#q)" d="M463 1995c80-32 160-59 246-145 6-6 23 8 25 13 12 28 33 58 19 57-85-10-137 26-175 55-27 21-123 23-115 20"/><path fill="url(#r)" d="M1978 1628c4 25 4 95 14 100 161 92 398 84 442-121l24-4 22-24a1184 1184 0 0 0 16-118l-13-57-25-52-65-73-71-41-76-23-92-9-70 6-82 20c-13 7-50 29-60 39-5 24-14 71-20 94-3 16-3 50-10 67l-2 35 10 41c22 43 47 71 58 120"/><path fill="url(#s)" d="M2049 1759c-111-252 17-502 305-498-67-44-122-50-200-54l-39 6-28-3c-48 14-110 27-146 64-1 22-14 72-19 94-6 16-25 64-24 81l28 67c20 39 31 54 40 98l18 67 9 47z"/><path fill="url(#t)" d="M2142 1431c5-10 1-32-15-43-19-11-46-10-58 14-8 19 4 38 23 47 18 10 40 0 50-18"/><path fill="url(#u)" d="M2376 1422c-15 26-60 45-115 28-64-20-132-83-80-153 23-31 87-30 132-8 33 16 99 73 63 133"/><path fill="#ED8870" d="M1990 1483c29 52 46 84 136 84 30 0 36 46 95 94 29 24 86 23 119 3 20-11 27-7 33-3 14 8 17 5 35 4 0 0 22-31 14-52-27-17-49-31-82-30l-19 18-15 22-17 11-26-2a351 351 0 0 1-65-74c-39-40-79-31-129-25-24-14-54-37-79-50"/><path fill="url(#v)" d="M653 1827a652 652 0 0 0 450-516l1-48 9-37c-5-34-3-86-5-120l28-12 24-5 19-13c12-30 10-28 8-60-193-387-817-472-1061-93-254 358-28 980 459 922z"/><path fill="#F28773" d="M456 1613c15-79 425-129 466-262 18-135 67-150 184-162v-68l-18-16a956 956 0 0 1-136 29c-28 1-70 1-96 8l-10 39c13 27 27 126 27 126l-9 55c-125 96-297 103-434 178l-8 23z"/><path fill="url(#w)" d="M754 1790c-492 43-723-595-514-992 0 0-74 57-82 70-98 151-151 263-135 467l27 142 47 95a453 453 0 0 0 525 262l51-10z"/><path fill="url(#x)" d="M675 1170c32 39 15 88-23 134-43 53-118 58-157 21-31-29-39-90 29-148 58-49 123-40 151-7"/><path fill="url(#y)" d="M558 891c42 42 56 143-48 247-75 75-221 163-321 53-73-80 3-205 75-268 55-49 211-118 294-32"/><path fill="#564341" d="m515 1567 89 68 120-29 17-157-213 61z"/><path fill="#7D7C7D" d="m605 1625-23 118 125-48 18-101z"/><path fill="#989697" d="m605 1625-90-58-17 92 84 84z"/><path fill="#564341" d="m662 600-17 81 172 36 20-105z"/><path fill="#B6B6B6" d="m457 582 548 30 122-47 53-370-124-104-114-13-30 26-44 12-45-1h-40l-36-5-30-7-24-7-20-13-21-13-11-21-173-13 36 112z"/><path fill="#FFED7E" d="m805 271-93 79 87 68-57 92 168-43-67-95-12-23 57-82-30-8z"/><path fill="#B6B6B6" d="m462 39-105 63-19 119 159-78z"/><path fill="#979797" d="m506 152-54 429-100-66-40-78 24-208zM640 46l33 36 93 29 89 2c29-9 55-10 75-33l4-17c-44-41-114-42-170-45l-90 6z"/><path fill="#564341" d="M798 2c72 6 134 30 146 60l111 14 4 1c12 5 40 25 75 52l41 34 13 12 5 10q4 3 4 11v1l-1 3-1 13-29 242-17 112c-3 12-23 22-68 39l-3 1-2 1c-32 11-60 20-70 20l-158-9-12 85a656 656 0 0 1 281 188l-1-1 2 2a383 383 0 0 1 59 76q40-28 82-36c127-23 234 21 278 110l9-71v-5l1-3v-6q3-24 0-49l-5-7h-10l-1-1-17-1h-2c-91-4-138-6-179-12h-4l-3-1-7-1q-91-12-107-52-13-36 21-83 21-29 53-61c35-35 100-85 167-128 86-55 170-94 243-111 95-21 172-25 187 5q12 24-25 61-24 27-68 65l-63 53-15 12h-1l-1 1v1l-3 2-12 9v1l3-1a629 629 0 0 1 86-5l4 1q60 1 99 21a103 103 0 0 1 58 81c10 69-73 165-187 236 40 1 80 11 107 33a230 230 0 0 1 76 105 304 304 0 0 1 17 102c115-61 269-59 387 3 134 71 190 201 132 354a42 42 0 0 1-36 29l1 4a80 80 0 0 1-11 41 310 310 0 0 1-50 65c-76 80-216 98-322 45l-10-5h-2l-1-1h-1v-1l-11-5-25-13a479 479 0 0 1-33 180l-1 4-1 3-3 6a381 381 0 0 1 50 27 235 235 0 0 1 55 52 211 211 0 0 1 24 39q15 34-1 55-16 18-47 11a282 282 0 0 1 21 49q13 38-11 58-9 6-26 4c18 38 17 76-12 90q-21 12-63-5l-35-13h-2l-3-2-6-2-2-1-36-14a698 698 0 0 0-94-27l-18-4-21-4a647 647 0 0 0-143-12h-7a822 822 0 0 1-212 19c-74-2-114-5-156-13l-34-8c-38-8-137 5-199 25l-51 13-72 16-4 1h-1l-6 2h-2l-3 1-62 14-32 8-13 4-15 4-37 8q-68 15-99-6-23-20-20-58a252 252 0 0 1 72-144v-1h-1l-33 9-3 1-1 1-24 6-1 1h-2l-2 1-3 1h-2l-3 1q-28 6-45 2a42 42 0 0 1-29-30l-14-4c-39-14-74-33-131-69-16-9-64-24-83-26-37-4-102 13-130 32l-21 33v1l-3 6-1 2-1 1-7 15q-7 12-19 13-13 0-19-13-5-8-8-20a298 298 0 0 1-7-59c-2-51 5-97 22-119 24-31 61-53 119-77l67-26 24-11a525 525 0 0 1-191-189 655 655 0 0 1 30-717 582 582 0 0 1 490-230l21 1 12-59-116-7h-4l-79-6c-43-21-91-53-105-67-20-20-45-88-45-112 0-37 9-108 24-196l2-11 1-4v-1l1-3 1-7v-3l1-3v-4l13-70 1-1 2-11v-1c3-9 17-18 55-40l56-32 4-2 1-1q4-2 7-1h2l74 4 84 6h1a41 41 0 0 1 17-14q15-7 39-12c32-7 73-9 112-6m63 2049h-5l-2 1h-5l-3 1-39 6c-22 5-61 26-87 47-33 26-78 80-92 111q-29 74-11 88 16 11 71 0l50-12 13-4 94-22 4-1 4-1 2-1h4l9-2 2-1 64-14q29-6 48-13a695 695 0 0 1 127-25 304 304 0 0 1-41-28 237 237 0 0 1-36-39l-30-35-1-1-1-1-11-9a359 359 0 0 0-75-47c-4-1-28-1-53 2m985 101a142 142 0 0 0-62 17l-5 2-39 21-4 2-42 19 78 14 8 1 2 1 8 1q48 12 98 29l39 15 5 2 3 1 1 1 36 13q31 10 37 7 9-5 0-37a147 147 0 0 0-37-56l-1-1-17-14q-58-41-108-38m-356-669q-31 62-82 105l-1 1-2 2c-63 56-147 68-225 38l-2-1c-57-22-102-65-124-117a645 645 0 0 1-296 293l1 18q0 20 5 39a82 82 0 0 0 32 47l30 24 8 8 20 20 1 1 1 1 1 1 10 10 1 2 18 18q15 12 26 18 65 29 99 59c18 15 26 24 47 51a207 207 0 0 0 32 34l14 11q56 37 129 50c40 8 78 11 150 13 121 4 241-18 338-66a414 414 0 0 0 222-241 458 458 0 0 0-34-406 387 387 0 0 1-55 92c-42 51-94 82-155 85-55 2-132-37-167-90-22-33-32-63-42-120m430 559-1 1a434 434 0 0 1-67 75 212 212 0 0 1 142 61 144 144 0 0 0 36 22l13 3q2-3-2-17v-1a289 289 0 0 0-22-50 194 194 0 0 0-26-39l-17-17a204 204 0 0 0-56-38m-1273-78a199 199 0 0 0-55 35l-3 4a219 219 0 0 0-41 54l-1 3-1 1v1l-1 1c-9 17-16 35-15 41q1 14 7 15 8 3 28-2l8-2 4-1 20-6 1-1h2l2-1h2l3-1 34-10q32-8 51-10l7-6c29-23 73-46 99-53 18-4 42-8 64-9l-20-20-9-10h-1l-1-1-1-2-9-10-14-13c-41-16-122-15-160 3m-215-111-29 19-1 1-36 23-2 1-1 1h-1v1c-67 33-133 73-176 109 30-9 64-13 88-10 22 2 74 18 93 30 56 34 90 53 127 65l3 2c4-21 18-51 32-73l-10 2c-36 7-63 4-77-17-16-25-3-55 27-88 21-23 50-46 68-55l9-5q-58 5-114-6m1526 122v1l-19 37a244 244 0 0 1 82 64l1 1 27 13 20 3h4v-3q0-7-5-16-8-17-19-33a202 202 0 0 0-47-44zM314 1815v1l-3 2-38 18-31 12h-2l-2 1-32 13c-55 22-89 42-109 69-12 15-18 57-17 102a272 272 0 0 0 9 60v1-1l5-10 1-1 5-11a274 274 0 0 1 41-55c41-45 122-97 207-139l2-1 3-2 35-22 1-1 8-5a458 458 0 0 1-83-31m321 48c-30 8-62 20-82 31-38 20-92 79-83 94q7 9 43 3a307 307 0 0 0 49-14l7-3a232 232 0 0 1 64-41c30-14 78-19 122-16a122 122 0 0 1-26-54q-31-17-94 0M149 911a628 628 0 0 0-29 687 480 480 0 0 0 249 210 428 428 0 0 0 62 17l6 1q139 25 296-41l4-2 7-3a641 641 0 0 0 351-656l-18 4c-46 11-92 16-168 19h-5l-3 1h-3c-22 0-31 2-37 5q-8 2-1 18c4 12 13 52 21 92l1 5v1l1 5 1 2 1 5 6 35q9 60-72 100a497 497 0 0 1-65 28v5l-4 36-9 87-9 65q-7 54-15 65c-5 9-30 22-62 34q-53 23-75 17c-12-4-33-20-54-41q-35-34-38-52-1-14 11-79l11-57 2-9q-53 18-72 34-9 7-4 15 5 12 31 35a14 14 0 0 1-19 21q-29-27-37-45-12-26 11-47c25-22 69-38 156-62l66-18c78-21 126-37 162-56q64-34 58-71l-10-51-1-4v-4c-8-36-15-71-19-81q-15-38 14-53c11-6 22-7 49-8h6l5-1c74-3 119-8 163-18l21-5 16-4h4l2-1 17-4h1q14-1 17-4h1q39-25 14-79v-2c-14-30-40-64-68-92h-1a653 653 0 0 0-480-217c-189-3-361 74-466 218m576 907-2 1-9 3 11 3zm1235-556-2 2a942 942 0 0 1-35 211l1 2a492 492 0 0 1 84 243l37 20 12 6 2 1 11 5c97 48 225 32 293-40a289 289 0 0 0 45-59q18-32-2-41l-10-6-5-3-1-1-5-2q-17-12-29-12-8 0-16 7l-12 14v1l-3 4-1 2-4 6a42 42 0 0 1-27 19q-29 7-53-13-15-12-34-40l-10-13q-17-26-29-30c-30-14-43-15-64-10h-1l-2 1-3 1c-29 6-54-5-109-52a13 13 0 0 1 17-20q40 35 61 44a37 37 0 0 0 25 2h5l2-1c25-6 44-4 79 11q19 8 40 39l5 6 4 6v1h1c25 37 40 48 60 43q8-1 12-9l9-13 14-17a46 46 0 0 1 35-15q20 1 42 16l10 7 12 6q24 10 32-10 41-109 3-195c-22-52-66-96-123-126a399 399 0 0 0-373 2M728 1453h-1l-75 22-13 3v6l-36 243 5-1a434 434 0 0 0 73-30l15-8 4-15v-1a691 691 0 0 0 15-103l13-117Zm-115 33-28 7-45 13v3l-1 2-14 75-12 71v1l1 1 1 1 6 9a311 311 0 0 0 56 54zm1311-261v1q-7 66-34 140c-22 61-76 133-142 166a292 292 0 0 1-105 25q-66 3-109-31a194 194 0 0 0 26 59c29 43 94 75 137 74q76-4 130-73a349 349 0 0 0 58-106c25-74 41-182 39-251zm-439-198 1 2c14 83 8 177-30 283-22 61-76 133-142 166-25 12-77 25-121 25q-74 1-117-41l-1 3c11 58 55 108 115 132 67 26 141 16 194-33q79-68 109-186c16-62 24-124 30-229q4-74-38-122m190 15-9 4-4 2c-51 22-96 50-104 68v1l-1 2v32l-4 54c33-62 87-93 141-79 68 17 98 97 77 185l-1 3c-22 90-90 146-153 134-41-8-73-39-86-81l-14 48q-1 16 7 37l12 25q33 50 106 46c34-2 72-12 91-22 57-28 106-93 125-146 34-94 41-178 30-254a199 199 0 0 0-44-48c-40-30-116-33-169-11m-411-75a175 175 0 0 0-71 33q14 36 5 65 35-17 73-8c68 17 98 98 77 186l-1 2c-22 90-90 147-153 134q-51-10-76-58a679 679 0 0 1-28 105q32 44 103 43c39 0 85-12 106-22 57-28 106-94 125-147a516 516 0 0 0 23-293v-1l-3-11v-4c-46-27-109-37-179-24Zm299 307c-19 74 12 131 60 140 44 9 97-35 115-111 17-71-6-132-52-144-50-13-101 30-123 115m-423-69c-19 75 12 131 60 141 44 8 97-36 115-111 17-72-6-133-52-145-50-13-101 31-123 115m4-92-7 2h-2l-13 3 1 8 2 20zm663-644a665 665 0 0 0-104 16c-68 15-149 53-232 106-65 41-128 90-161 124-47 46-75 86-66 107q7 19 80 31c42 6 88 9 189 13l110 5h9l2 1h6l15 1 7 1 5 2q7 5 8 15 0 9-7 13l-4 3-13 2-15 2h-1l-1 1h-4l-15 2-31 6c-2 43-8 92-14 128v1l33-14 2-1 37-17 4-2 56-29c123-64 217-165 210-224q-11-70-125-72-40-1-89 5l-17 2h-3l-29 3-7-1a18 18 0 0 1-14-16q1-7 4-12l3-4 9-8 22-19 3-2 17-14 2-2h1l1-1 15-12 62-52a741 741 0 0 0 66-63l17-22v-1l-4-1h-1l-37-1ZM675 609l-12 58a707 707 0 0 1 148 29l11-78-104-6zM520 163l-10 68-21 147-17 142-4 50v1h1l246 15h5l286 16q4 1 23-5a774 774 0 0 0 83-32l12-6v-1l4-20v-2l12-82v-3l30-251-171-11-10-1-189-11-116-6h-15l-5-1h-11l-13-1h-8l-3-1zm-26-3-146 73c-14 82-22 148-22 182 0 18 22 79 37 94 10 10 45 33 80 52l3-43 18-143zm397 83 7 2a14 14 0 0 1 8 11c1 13-6 25-29 57l-1 2-17 25-1 1-2 3-5 10 1 1v1c4 8 12 18 31 42l3 4c27 33 37 50 37 66q-1 8-9 12l-7 4-20 7a1295 1295 0 0 1-118 32l-30 4q-9 0-13-8c-4-8-2-11 2-18l7-11 11-14 1-1 4-5 1-1 6-7 3-5 19-25 4-6v-1l-6-4-1-1-2-1h-1l-11-7-1-1h-1l-2-1-12-8-30-21a55 55 0 0 1-19-24q-3-9 5-17l9-11 39-33 3-2 3-3 1-1 3-1v-1l2-1 34-26c7-4 28-10 52-14l30-4zm-15 26h-1l-30 5h-2l-31 8-37 28-1 1-1 1-2 1v1l-2 1-11 9-33 29v1l7 7 1 1 27 19 14 8 2 1 12 7 1 1h1c14 9 19 13 21 20 2 13-6 27-29 55l-4 5-6 7-1 1-9 12h-1 3a1238 1238 0 0 0 115-31l16-6h1v-1q-5-11-29-41l-1-1-3-4c-25-31-31-40-36-52q-5-12 7-31l2-4h1v-1l1-1 17-25 1-2 19-29zM458 57h-1l-43 25-33 20-10 8h-1l-1 6v1l-5 25-11 59 133-66a641 641 0 0 1-28-78m25-7a605 605 0 0 0 32 86v1l129 6 3 1h7l12 1 214 11 114 7 13 1 140 9-74-57-22-14-108-14c-16 31-85 44-158 37a379 379 0 0 1-102-25q-41-16-53-40l-23-2zm208-17q-21 4-32 10l-6 4c4 20 65 45 132 52h2a303 303 0 0 0 98-5q30-8 35-17v-7q-6-9-32-22a304 304 0 0 0-92-20 414 414 0 0 0-105 5"/></g><defs><linearGradient id="b" x1="887.4" x2="1426.2" y1="1515.4" y2="2354.9" gradientUnits="userSpaceOnUse"><stop stop-color="#FFBC9C"/><stop offset=".7" stop-color="#FFBC9C"/><stop offset="1" stop-color="#FFA67A"/></linearGradient><linearGradient id="c" x1="619.7" x2="570.9" y1="1842.9" y2="2039.3" gradientUnits="userSpaceOnUse"><stop stop-color="#F28773"/><stop offset=".3" stop-color="#F28773"/><stop offset="1" stop-color="#F6A66A"/></linearGradient><linearGradient id="d" x1="697.5" x2="637.8" y1="1937.2" y2="2170.3" gradientUnits="userSpaceOnUse"><stop stop-color="#F28773"/><stop offset=".3" stop-color="#F28773"/><stop offset="1" stop-color="#F6A66A"/></linearGradient><linearGradient id="e" x1="860.8" x2="767.6" y1="2032" y2="2378.4" gradientUnits="userSpaceOnUse"><stop stop-color="#F28773"/><stop offset=".3" stop-color="#F28773"/><stop offset="1" stop-color="#F6A66A"/></linearGradient><linearGradient id="f" x1="1837" x2="1891.9" y1="2168.8" y2="2355.9" gradientUnits="userSpaceOnUse"><stop stop-color="#F57A55"/><stop offset=".4" stop-color="#F28773"/><stop offset="1" stop-color="#FA9F6E"/></linearGradient><linearGradient id="g" x1="1929.1" x2="2011.7" y1="2064.7" y2="2237.2" gradientUnits="userSpaceOnUse"><stop stop-color="#F57A55"/><stop offset=".4" stop-color="#F28773"/><stop offset="1" stop-color="#FA9F6E"/></linearGradient><linearGradient id="h" x1="2003.9" x2="2071.1" y1="1992.4" y2="2115.3" gradientUnits="userSpaceOnUse"><stop stop-color="#F57A55"/><stop offset=".4" stop-color="#F28773"/><stop offset="1" stop-color="#FA9F6E"/></linearGradient><linearGradient id="i" x1="1575.7" x2="1575.7" y1="453.7" y2="1070" gradientUnits="userSpaceOnUse"><stop stop-color="#FFE768"/><stop offset=".4" stop-color="#FFE768"/><stop offset=".7" stop-color="#FFBD4A"/><stop offset="1" stop-color="#FFBD4A"/></linearGradient><linearGradient id="j" x1="1707.5" x2="1992.3" y1="1011.2" y2="1479.7" gradientUnits="userSpaceOnUse"><stop stop-color="#564341"/><stop offset=".5" stop-color="#564341"/><stop offset="1" stop-color="#845750"/></linearGradient><linearGradient id="k" x1="1264" x2="1550.6" y1="947.5" y2="1427.7" gradientUnits="userSpaceOnUse"><stop stop-color="#564341"/><stop offset=".5" stop-color="#564341"/><stop offset="1" stop-color="#845750"/></linearGradient><linearGradient id="l" x1="1945.7" x2="1977.7" y1="1986.8" y2="2011.6" gradientUnits="userSpaceOnUse"><stop stop-color="#C35C45"/><stop offset="1" stop-color="#B76455"/></linearGradient><linearGradient id="m" x1="1867.1" x2="1906.2" y1="2077.2" y2="2128.2" gradientUnits="userSpaceOnUse"><stop stop-color="#C35C45"/><stop offset="1" stop-color="#B76455"/></linearGradient><linearGradient id="n" x1="1126.5" x2="970.9" y1="2143.3" y2="2406.2" gradientUnits="userSpaceOnUse"><stop stop-color="#AA6160"/><stop offset="1" stop-color="#B36F5F"/></linearGradient><linearGradient id="o" x1="1737.3" x2="1777.2" y1="2177" y2="2265.9" gradientUnits="userSpaceOnUse"><stop stop-color="#C35C45"/><stop offset="1" stop-color="#B76455"/></linearGradient><linearGradient id="p" x1="868.7" x2="755.2" y1="2003.4" y2="2204.6" gradientUnits="userSpaceOnUse"><stop stop-color="#AA6160"/><stop offset="1" stop-color="#B36F5F"/></linearGradient><linearGradient id="q" x1="757.6" x2="663.9" y1="1894.8" y2="2066" gradientUnits="userSpaceOnUse"><stop stop-color="#AA6160"/><stop offset="1" stop-color="#B36F5F"/></linearGradient><linearGradient id="r" x1="2394.3" x2="2004.9" y1="1310.1" y2="1704.8" gradientUnits="userSpaceOnUse"><stop stop-color="#FFCB87"/><stop offset=".1" stop-color="#FFCB87"/><stop offset=".4" stop-color="#FFBC9C"/><stop offset="1" stop-color="#FFBC9C"/></linearGradient><linearGradient id="s" x1="2354" x2="1867.7" y1="1206.8" y2="1730.7" gradientUnits="userSpaceOnUse"><stop stop-color="#FBC38C"/><stop offset=".3" stop-color="#F19675"/><stop offset=".7" stop-color="#F0876A"/><stop offset="1" stop-color="#ED8870"/></linearGradient><linearGradient id="t" x1="2105.3" x2="2105.3" y1="1381.3" y2="1453.1" gradientUnits="userSpaceOnUse"><stop stop-color="#FFFFFE"/><stop offset="1" stop-color="#fff"/></linearGradient><linearGradient id="u" x1="2274.5" x2="2274.5" y1="1272.6" y2="1456.3" gradientUnits="userSpaceOnUse"><stop stop-color="#FFFFFE"/><stop offset="1" stop-color="#fff"/></linearGradient><linearGradient id="v" x1="288.4" x2="624.3" y1="689.3" y2="1846.7" gradientUnits="userSpaceOnUse"><stop stop-color="#FFCB87"/><stop offset=".2" stop-color="#FFCB87"/><stop offset=".7" stop-color="#FFBC9C"/><stop offset="1" stop-color="#FFBC9C"/></linearGradient><linearGradient id="w" x1="11.7" x2="616.7" y1="1035.8" y2="1632" gradientUnits="userSpaceOnUse"><stop stop-color="#FFCB87"/><stop offset=".3" stop-color="#F79E75"/><stop offset=".5" stop-color="#EF876D"/><stop offset="1" stop-color="#ED8870"/></linearGradient><linearGradient id="x" x1="578.3" x2="585.4" y1="1143.8" y2="1348.2" gradientUnits="userSpaceOnUse"><stop stop-color="#FFFFFE"/><stop offset="1" stop-color="#fff"/></linearGradient><linearGradient id="y" x1="367.8" x2="381.3" y1="852.8" y2="1240.2" gradientUnits="userSpaceOnUse"><stop stop-color="#FFF9CE"/><stop offset="1" stop-color="#fff"/></linearGradient><clipPath id="a"><path fill="#fff" d="M0 1h2500v2344H0z"/></clipPath></defs></svg>
