<svg width="24" height="24" viewBox="0 0 16 16" fill="none" xmlns="http://www.w3.org/2000/svg">
<path d="M8.08556 9.35002C7.84506 9.46052 7.58156 9.60452 7.05406 9.89402C6.85406 10.0065 6.64506 10.119 6.45056 10.225C6.43706 10.2115 6.42306 10.1945 6.40956 10.1805C5.36606 9.06552 3.43606 8.27802 3.51806 6.78052C3.54856 6.23502 3.73606 4.80302 7.22456 3.06402C10.0956 1.64902 12.3801 2.04102 12.7746 2.91052C13.3416 4.15002 11.5501 6.45652 8.58506 6.79102C8.25691 6.85755 7.918 6.84949 7.59338 6.76745C7.26875 6.68541 6.96671 6.53147 6.70956 6.31702C6.55256 6.14652 6.52906 6.13652 6.47106 6.17052C6.37556 6.22052 6.43706 6.37502 6.47106 6.46352C6.58416 6.6683 6.73717 6.84832 6.92104 6.99294C7.10491 7.13756 7.31591 7.24385 7.54156 7.30552C8.70837 7.55772 9.92491 7.43722 11.0196 6.96102C12.8166 6.26552 14.2196 4.33202 13.8086 2.71102C13.3961 1.06752 10.6681 0.525524 8.08706 1.44252C6.4707 1.98722 4.97733 2.84468 3.69206 3.96602C2.27006 5.29602 2.04506 6.45202 2.13706 6.93602C2.46806 8.65452 4.83706 9.77302 5.78706 10.6015C5.73773 10.6282 5.69456 10.652 5.65756 10.673C5.18356 10.9085 3.37656 11.853 2.92606 12.852C2.41456 13.984 3.00806 14.7955 3.40006 14.9045C3.99081 15.0462 4.61105 14.9997 5.17411 14.7717C5.73717 14.5436 6.21491 14.1454 6.54056 13.6325C6.8172 13.2074 6.98707 12.7217 7.03574 12.2168C7.0844 11.7119 7.01041 11.2027 6.82006 10.7325C6.93232 10.6429 7.0521 10.5631 7.17806 10.494C7.42006 10.351 7.65056 10.21 7.85506 10.101C8.55539 9.77345 9.31942 9.60459 10.0926 9.60652C11.7156 9.79752 12.0361 10.81 11.9746 11.2365C11.9457 11.3878 11.8848 11.5312 11.796 11.657C11.7072 11.7828 11.5925 11.8882 11.4596 11.966C11.3471 12.0375 11.3096 12.0615 11.3196 12.1125C11.3331 12.1875 11.3876 12.184 11.4831 12.1705C11.7269 12.0935 11.9417 11.9444 12.0993 11.743C12.2569 11.5416 12.3499 11.2972 12.3661 11.042C12.4161 10.042 11.4626 8.94502 9.77456 8.95502C9.26919 8.95649 8.76891 9.05618 8.30156 9.24852C8.22656 9.27952 8.15373 9.31286 8.08306 9.34852L8.08556 9.35002ZM5.67306 13.2695C5.13406 13.856 4.38406 14.0775 4.06006 13.89C3.71006 13.69 3.84856 12.8225 4.51006 12.202C4.90152 11.8486 5.32501 11.5324 5.77506 11.2575C5.85356 11.2075 5.96956 11.1415 6.10906 11.0575L6.14656 11.037L6.22856 10.987C6.34644 11.3826 6.35712 11.8024 6.25952 12.2034C6.16191 12.6044 5.95953 12.9724 5.67306 13.2695Z" fill="#CD6799"/>
</svg>
