<svg width="17" height="24" viewBox="0 0 17 16" fill="none" xmlns="http://www.w3.org/2000/svg">
<path d="M16.6666 3.7104C16.6666 3.7104 11.3333 -0.214099 7.20751 0.691526L6.90563 0.792151C6.30188 0.993401 5.79876 1.29528 5.49688 1.69778L5.29563 1.99965L3.78613 4.61603L6.40238 5.11915C7.50938 5.82365 8.91826 6.1254 10.2264 5.82365L14.8553 6.72928L16.6666 3.7104Z" fill="#76B3E1"/>
<path opacity="0.3" d="M16.6666 3.7104C16.6666 3.7104 11.3333 -0.214099 7.20751 0.691526L6.90563 0.792151C6.30188 0.993401 5.79876 1.29528 5.49688 1.69778L5.29563 1.99965L3.78613 4.61603L6.40238 5.11915C7.50938 5.82365 8.91826 6.1254 10.2264 5.82365L14.8553 6.72928L16.6666 3.7104Z" fill="url(#paint0_linear_60_43)"/>
<path d="M5.49696 3.71039L5.09446 3.81101C3.38359 4.31414 2.88046 5.92426 3.78609 7.33301C4.79234 8.64114 6.90559 9.34551 8.61621 8.84251L14.8552 6.72926C14.8552 6.72926 9.52209 2.80476 5.49696 3.71039Z" fill="#518AC8"/>
<path opacity="0.3" d="M5.49696 3.71039L5.09446 3.81101C3.38359 4.31414 2.88046 5.92426 3.78609 7.33301C4.79234 8.64114 6.90559 9.34551 8.61621 8.84251L14.8552 6.72926C14.8552 6.72926 9.52209 2.80476 5.49696 3.71039Z" fill="url(#paint1_linear_60_43)"/>
<path d="M13.7485 8.23873C13.1851 7.53494 12.4244 7.01531 11.5639 6.74639C10.7035 6.47747 9.78228 6.4715 8.91837 6.72923L2.67925 8.74173L0.666748 12.2639L11.9372 14.1757L13.9497 10.5531C14.3522 9.84873 14.2516 9.04373 13.7485 8.23861V8.23873Z" fill="url(#paint2_linear_60_43)"/>
<path d="M11.7359 11.7606C11.1724 11.0568 10.4118 10.5372 9.5513 10.2683C8.69081 9.99944 7.76964 9.99348 6.90575 10.2512L0.666748 12.2637C0.666748 12.2637 6.00012 16.289 10.1259 15.2827L10.4277 15.182C12.1385 14.6789 12.7422 13.0687 11.7359 11.7606Z" fill="url(#paint3_linear_60_43)"/>
<defs>
<linearGradient id="paint0_linear_60_43" x1="3.03142" y1="0.490287" x2="15.5597" y2="6.57833" gradientUnits="userSpaceOnUse">
<stop offset="0.1" stop-color="#76B3E1"/>
<stop offset="0.3" stop-color="#DCF2FD"/>
<stop offset="1" stop-color="#76B3E1"/>
</linearGradient>
<linearGradient id="paint1_linear_60_43" x1="9.90445" y1="3.46888" x2="7.71074" y2="10.7745" gradientUnits="userSpaceOnUse">
<stop stop-color="#76B3E1"/>
<stop offset="0.5" stop-color="#4377BB"/>
<stop offset="1" stop-color="#1F3B77"/>
</linearGradient>
<linearGradient id="paint2_linear_60_43" x1="2.11582" y1="6.64872" x2="14.785" y2="15.2625" gradientUnits="userSpaceOnUse">
<stop stop-color="#315AA9"/>
<stop offset="0.5" stop-color="#518AC8"/>
<stop offset="1" stop-color="#315AA9"/>
</linearGradient>
<linearGradient id="paint3_linear_60_43" x1="7.83153" y1="7.68519" x2="2.71959" y2="26.4323" gradientUnits="userSpaceOnUse">
<stop stop-color="#4377BB"/>
<stop offset="0.5" stop-color="#1A336B"/>
<stop offset="1" stop-color="#1A336B"/>
</linearGradient>
</defs>
</svg>
