<svg
  xmlns="http://www.w3.org/2000/svg"
  width="24"
  height="24"
  fill="none"
  viewBox="0 0 16 16"
>
  <title>Svelte icon</title>
  <path
    fill="#FF3E00"
    d="M13.804 2.117C12.319-.009 9.386-.64 7.266.712L3.542 3.087a4.28 4.28 0 0 0-1.935 2.862q-.07.395-.071.8c.002.728.18 1.446.52 2.09a4.3 4.3 0 0 0-.639 1.598 4.56 4.56 0 0 0 .781 3.446c1.485 2.126 4.424 2.757 6.538 1.405l3.72-2.375a4.26 4.26 0 0 0 1.93-2.865q.072-.395.071-.798a4.5 4.5 0 0 0-.514-2.089 4.3 4.3 0 0 0 .71-2.394 4.55 4.55 0 0 0-.849-2.648z"
  />
  <path
    fill="#fff"
    d="M6.902 14.083a2.955 2.955 0 0 1-3.174-1.178 2.74 2.74 0 0 1-.468-2.072q.034-.178.09-.348l.07-.213.19.144c.442.324.934.57 1.458.73l.138.04-.013.139v.072c0 .172.053.34.153.481a.89.89 0 0 0 .955.362.8.8 0 0 0 .23-.1l3.72-2.387a.78.78 0 0 0 .362-.662.892.892 0 0 0-1.114-.835.8.8 0 0 0-.227.1l-1.418.906a2.7 2.7 0 0 1-.756.332 2.955 2.955 0 0 1-3.174-1.177 2.74 2.74 0 0 1-.469-2.071 2.58 2.58 0 0 1 1.161-1.723L8.34 2.25c.234-.148.489-.26.756-.333a3 3 0 0 1 2.12.242 2.96 2.96 0 0 1 1.062.935 2.74 2.74 0 0 1 .372 2.422l-.07.214-.19-.14a4.8 4.8 0 0 0-1.458-.729l-.138-.043.013-.138v-.071a.84.84 0 0 0-.153-.484.89.89 0 0 0-.732-.382 1 1 0 0 0-.22.033.8.8 0 0 0-.23.1L5.748 6.25a.78.78 0 0 0-.35.521 1 1 0 0 0-.017.138c0 .173.054.34.154.48a.89.89 0 0 0 .955.355.8.8 0 0 0 .229-.1l1.42-.912q.361-.226.757-.332a2.96 2.96 0 0 1 3.175 1.177 2.74 2.74 0 0 1 .467 2.077 2.58 2.58 0 0 1-1.16 1.723L7.66 13.749a2.7 2.7 0 0 1-.758.334"
  />
</svg>
