<svg width="24" height="24" viewBox="0 0 16 16" fill="none" xmlns="http://www.w3.org/2000/svg">
<path d="M8.00049 3.20026C5.86711 3.20026 4.53424 4.26651 4.00049 6.39988C4.80024 5.33351 5.73386 4.93363 6.80024 5.20026C7.40911 5.35201 7.84424 5.79351 8.32611 6.28276C9.11036 7.07863 10.0181 8.00001 12.0005 8.00001C14.1337 8.00001 15.4667 6.93363 16.0005 4.79976C15.2005 5.86667 14.2672 6.26676 13.2006 6.00001C12.5919 5.84813 12.1572 5.40676 11.6747 4.91751C10.891 4.12163 9.98349 3.20026 8.00049 3.20026ZM4.00049 8.00001C1.86724 8.00001 0.534238 9.06638 0.000488281 11.2003C0.800405 10.1333 1.73366 9.73326 2.80024 10C3.40911 10.1519 3.84424 10.5933 4.32611 11.0825C5.11036 11.8784 6.01811 12.7998 8.00049 12.7998C10.1337 12.7998 11.4667 11.7335 12.0005 9.60013C11.2005 10.6665 10.2672 11.0664 9.20061 10.7998C8.59186 10.648 8.15724 10.2065 7.67474 9.71726C6.89099 8.92138 5.98349 8.00001 4.00049 8.00001Z" fill="#38BDF8"/>
</svg>
