<svg width="24" height="24" viewBox="0 0 16 16" fill="none" xmlns="http://www.w3.org/2000/svg">
<path d="M2.83374 5.875H15.2925V15.0837H2.83374V5.875Z" fill="white"/>
<path d="M0.1875 7.98877V15.8013H15.8125V0.17627H0.1875V7.98877ZM12.7788 7.36377C13.153 7.45062 13.4931 7.64635 13.7563 7.92627C13.9011 8.07709 14.027 8.245 14.1313 8.42627C14.1313 8.44627 13.4563 8.90252 13.045 9.15752C13.03 9.16752 12.97 9.10252 12.9038 9.00377C12.8287 8.87423 12.722 8.76582 12.5937 8.68866C12.4654 8.6115 12.3196 8.5681 12.17 8.56252C11.6962 8.53002 11.3913 8.77877 11.3938 9.18752C11.39 9.28928 11.4132 9.39022 11.4613 9.48002C11.565 9.69627 11.7587 9.82502 12.3663 10.0875C13.485 10.5688 13.9637 10.8863 14.2612 11.3375C14.5938 11.8375 14.6675 12.645 14.4425 13.2425C14.1925 13.8925 13.58 14.3338 12.7137 14.48C12.3181 14.5254 11.9184 14.5212 11.5238 14.4675C10.919 14.3678 10.3619 14.0775 9.93375 13.6388C9.79 13.48 9.51 13.0663 9.5275 13.0363C9.57304 13.0023 9.6211 12.9718 9.67125 12.945L10.25 12.625L10.6987 12.365L10.7925 12.5038C10.9508 12.7301 11.1521 12.9229 11.385 13.0713C11.885 13.3338 12.5675 13.2975 12.905 12.9938C13.0183 12.8825 13.089 12.7349 13.1048 12.5769C13.1205 12.4188 13.0804 12.2603 12.9913 12.1288C12.8663 11.955 12.6162 11.8088 11.9175 11.5038C11.1112 11.1563 10.7638 10.9413 10.4462 10.5988C10.2481 10.3727 10.1018 10.1061 10.0175 9.81752C9.95469 9.48783 9.94541 9.15017 9.99 8.81752C10.1562 8.03877 10.74 7.49502 11.5925 7.33377C11.9873 7.285 12.3872 7.29595 12.7788 7.36627V7.36377ZM9.11125 8.01877V8.65877H7.0825V14.4375H5.64375V8.65752H3.61V8.03252C3.60362 7.81699 3.60863 7.60127 3.625 7.38627C3.635 7.37502 4.875 7.37502 6.375 7.37502H9.10375L9.11125 8.01877Z" fill="#007ACC"/>
</svg>
