<svg width="24" height="24" viewBox="0 0 16 16" fill="none" xmlns="http://www.w3.org/2000/svg">
<path d="M14.942 3.07303L8.37101 14.823C8.34015 14.8783 8.29516 14.9244 8.24064 14.9565C8.18612 14.9887 8.12403 15.0057 8.06074 15.006C7.99744 15.0062 7.93522 14.9897 7.88044 14.958C7.82567 14.9262 7.7803 14.8805 7.74901 14.8255L1.04801 3.07403C1.01432 3.01506 0.998142 2.94771 1.00138 2.87988C1.00462 2.81205 1.02715 2.74655 1.0663 2.69106C1.10546 2.63558 1.15963 2.59242 1.22246 2.56664C1.28529 2.54086 1.35416 2.53354 1.42101 2.54553L7.99901 3.72153C8.04082 3.72921 8.08369 3.72921 8.12551 3.72153L14.566 2.54753C14.6326 2.53536 14.7013 2.54237 14.764 2.56775C14.8268 2.59312 14.881 2.63581 14.9204 2.69084C14.9598 2.74587 14.9828 2.81097 14.9866 2.87855C14.9904 2.94613 14.975 3.0139 14.942 3.07303Z" fill="url(#paint0_linear_60_115)"/>
<path d="M11.132 1.00352L6.26998 1.95602C6.23117 1.96386 6.19603 1.98427 6.17 2.0141C6.14396 2.04393 6.12849 2.08151 6.12598 2.12102L5.82698 7.17302C5.82533 7.20074 5.83016 7.22846 5.8411 7.25397C5.85204 7.27949 5.86879 7.3021 5.89 7.32002C5.91121 7.33793 5.93631 7.35065 5.9633 7.35716C5.99029 7.36367 6.01843 7.36379 6.04548 7.35752L7.39898 7.04502C7.42813 7.03828 7.45852 7.03899 7.48734 7.04706C7.51615 7.05514 7.54248 7.07033 7.56389 7.09125C7.5853 7.11216 7.6011 7.13811 7.60986 7.16673C7.61861 7.19535 7.62003 7.22571 7.61398 7.25502L7.21198 9.22452C7.20577 9.25484 7.20756 9.28625 7.21716 9.31567C7.22676 9.3451 7.24384 9.37152 7.26674 9.39234C7.28963 9.41317 7.31754 9.42768 7.34774 9.43446C7.37794 9.44125 7.40938 9.44006 7.43898 9.43102L8.27498 9.17702C8.30462 9.16795 8.33612 9.16676 8.36637 9.17356C8.39662 9.18036 8.42457 9.19492 8.44748 9.21581C8.47039 9.2367 8.48747 9.2632 8.49702 9.2927C8.50658 9.32219 8.50828 9.35367 8.50198 9.38402L7.86248 12.4775C7.82248 12.671 8.07998 12.7765 8.18748 12.611L8.25898 12.5L12.2215 4.59252C12.2364 4.56273 12.2426 4.52937 12.2395 4.49621C12.2364 4.46305 12.2241 4.43142 12.204 4.40489C12.1838 4.37836 12.1567 4.358 12.1256 4.34609C12.0945 4.33418 12.0607 4.33122 12.028 4.33752L10.6345 4.60602C10.6045 4.61176 10.5735 4.60971 10.5445 4.60006C10.5156 4.59042 10.4895 4.5735 10.469 4.55092C10.4484 4.52835 10.434 4.50087 10.4271 4.47113C10.4201 4.44138 10.421 4.41036 10.4295 4.38102L11.3385 1.22802C11.347 1.19859 11.3479 1.16746 11.3409 1.13761C11.334 1.10776 11.3194 1.0802 11.2987 1.0576C11.278 1.03499 11.2519 1.01809 11.2228 1.00854C11.1936 0.998978 11.1625 0.997079 11.1325 1.00302" fill="url(#paint1_linear_60_115)"/>
<defs>
<linearGradient id="paint0_linear_60_115" x1="0.884266" y1="2.12546" x2="9.06186" y2="13.2313" gradientUnits="userSpaceOnUse">
<stop stop-color="#41D1FF"/>
<stop offset="1" stop-color="#BD34FE"/>
</linearGradient>
<linearGradient id="paint1_linear_60_115" x1="7.62096" y1="1.26191" x2="9.10025" y2="11.4097" gradientUnits="userSpaceOnUse">
<stop stop-color="#FFEA83"/>
<stop offset="0.083" stop-color="#FFDD35"/>
<stop offset="1" stop-color="#FFA800"/>
</linearGradient>
</defs>
</svg>
